<svg width="512" height="512" viewBox="0 0 512 512" fill="none" xmlns="http://www.w3.org/2000/svg">
  <defs>
    <linearGradient id="gradient" x1="0%" y1="0%" x2="100%" y2="100%">
      <stop offset="0%" style="stop-color:#667eea;stop-opacity:1" />
      <stop offset="100%" style="stop-color:#764ba2;stop-opacity:1" />
    </linearGradient>
  </defs>
  
  <circle cx="256" cy="256" r="240" fill="url(#gradient)" stroke="#667eea" stroke-width="8"/>
  
  <rect x="160" y="120" width="192" height="240" rx="16" fill="#ffffff" stroke="#667eea" stroke-width="4"/>
  
  <rect x="200" y="100" width="112" height="40" rx="20" fill="#667eea"/>
  
  <line x1="180" y1="160" x2="332" y2="160" stroke="#e2e8f0" stroke-width="3"/>
  <line x1="180" y1="200" x2="332" y2="200" stroke="#e2e8f0" stroke-width="3"/>
  <line x1="180" y1="240" x2="332" y2="240" stroke="#e2e8f0" stroke-width="3"/>
  <line x1="180" y1="280" x2="332" y2="280" stroke="#e2e8f0" stroke-width="3"/>
  <line x1="180" y1="320" x2="332" y2="320" stroke="#e2e8f0" stroke-width="3"/>
  
  <rect x="190" y="150" width="20" height="20" rx="4" fill="#c6f6d5" stroke="#38a169" stroke-width="2"/>
  <rect x="190" y="190" width="20" height="20" rx="4" fill="#c6f6d5" stroke="#38a169" stroke-width="2"/>
  <rect x="190" y="230" width="20" height="20" rx="4" fill="#c6f6d5" stroke="#38a169" stroke-width="2"/>
  <rect x="190" y="270" width="20" height="20" rx="4" fill="#c6f6d5" stroke="#38a169" stroke-width="2"/>
  <rect x="190" y="310" width="20" height="20" rx="4" fill="#c6f6d5" stroke="#38a169" stroke-width="2"/>
  
  <path d="M195 165L205 175L215 155" stroke="#38a169" stroke-width="3" stroke-linecap="round" stroke-linejoin="round"/>
  <path d="M195 205L205 215L215 195" stroke="#38a169" stroke-width="3" stroke-linecap="round" stroke-linejoin="round"/>
  <path d="M195 245L205 255L215 235" stroke="#38a169" stroke-width="3" stroke-linecap="round" stroke-linejoin="round"/>
  <path d="M195 285L205 295L215 275" stroke="#38a169" stroke-width="3" stroke-linecap="round" stroke-linejoin="round"/>
  <path d="M195 325L205 335L215 315" stroke="#38a169" stroke-width="3" stroke-linecap="round" stroke-linejoin="round"/>
  
  <rect x="220" y="155" width="100" height="8" rx="4" fill="#cbd5e0"/>
  <rect x="220" y="195" width="80" height="8" rx="4" fill="#cbd5e0"/>
  <rect x="220" y="235" width="90" height="8" rx="4" fill="#cbd5e0"/>
  <rect x="220" y="275" width="70" height="8" rx="4" fill="#cbd5e0"/>
  <rect x="220" y="315" width="85" height="8" rx="4" fill="#cbd5e0"/>
  
  <circle cx="320" cy="180" r="8" fill="#667eea" opacity="0.6"/>
  <circle cx="330" cy="220" r="6" fill="#764ba2" opacity="0.6"/>
  <circle cx="315" cy="260" r="10" fill="#667eea" opacity="0.4"/>
</svg>
